<svg width="46" height="54" viewBox="0 0 46 54" fill="none" xmlns="http://www.w3.org/2000/svg">
<path d="M3.83333 54C2.81111 54 1.91667 53.6143 1.15 52.8429C0.383333 52.0714 0 51.1714 0 50.1429V16.0714C0 15.0429 0.383333 14.1429 1.15 13.3714C1.91667 12.6 2.81111 12.2143 3.83333 12.2143H10.8611C10.8611 8.83286 11.9856 5.94 14.2472 3.57429C16.5089 1.20857 19.32 0 22.6806 0C26.0411 0 28.9672 1.18286 31.4333 3.57429C33.8994 5.96571 35.1389 8.83286 35.1389 12.2143H42.1667C43.1889 12.2143 44.0833 12.6 44.85 13.3714C45.6167 14.1429 46 15.0429 46 16.0714V50.1429C46 51.1714 45.6167 52.0714 44.85 52.8429C44.0833 53.6143 43.1889 54 42.1667 54H3.83333ZM3.83333 50.1429H42.1667V16.0714H3.83333V50.1429ZM14.6944 12.2143H31.3056C31.3056 9.86143 30.5133 7.86857 28.9033 6.27429C27.2933 4.68 25.3383 3.85714 23 3.85714C20.6617 3.85714 18.6811 4.65429 17.0967 6.27429C15.5122 7.89429 14.6944 9.86143 14.6944 12.2143ZM3.83333 50.1429V16.0714V50.1429Z" fill="#1E1E1E"/>
</svg>
