<svg width="67" height="83" viewBox="0 0 67 83" fill="none" xmlns="http://www.w3.org/2000/svg">
<path d="M58.9649 67H8.03514C3.59777 67 0 63.4022 0 58.9649V8.03514C0 3.59777 3.59777 0 8.03514 0H58.9649C63.4022 0 67 3.59777 67 8.03514V58.9649C67 63.4022 63.4031 67 58.9649 67Z" fill="white"/>
<path d="M19.9796 8.59796C20.6254 9.03294 20.2494 11.098 20.344 11.7241C20.353 12.1966 19.9662 12.6897 19.4893 12.7558C15.1948 13.5748 13.2628 18.6544 14.7464 22.5291C15.8388 25.3944 17.6475 25.8714 20.1002 26.9905C20.5629 27.4094 20.244 29.4281 20.3137 29.9649C19.8903 32.8249 13.9515 29.0529 13.0199 27.8096C8.81206 23.7286 8.82635 15.6408 13.0288 11.5714C14.6232 9.99223 17.6439 7.88966 19.9796 8.59796ZM32.6665 19.0697C32.8898 22.2593 31.7697 25.5659 29.5403 27.8105C28.6168 29.0306 22.644 32.8481 22.2251 29.9658C22.3153 29.4245 22.0089 27.405 22.468 26.9914C22.6297 26.7896 22.8325 26.6681 23.0754 26.627C25.4174 26.1233 27.2046 24.4137 27.9013 22.1959C27.3967 22.0798 20.8942 22.5014 20.7085 21.8922C20.1627 21.4912 20.4709 19.5467 20.3744 18.9786C20.3744 18.6955 20.4771 18.4472 20.6826 18.2346C20.528 17.5969 31.2901 18.0372 31.6045 17.9157C32.2181 17.8996 32.7192 18.4641 32.6665 19.0697ZM23.0754 12.7567C22.5985 12.6906 22.2162 12.1966 22.2251 11.725C22.3394 10.7872 21.6972 8.06026 23.4702 8.38627C27.0644 8.9597 30.095 11.3222 31.6045 14.6082C32.0252 15.212 31.374 16.1686 30.664 16.1258H28.0835C27.1707 16.1445 26.9938 15.0977 26.3838 14.6082C25.4736 13.6766 24.3705 13.0594 23.0754 12.7567Z" fill="#1E1E1E"/>
<path d="M43.6976 15.6085C43.3546 16.6169 40.6867 16.0452 39.9346 16.1855C39.0182 16.557 35.5999 10.4878 35.0774 10.0537C34.0244 7.69391 37.6454 8.47366 38.811 8.35397C39.6818 7.9958 43.1358 14.0695 43.6369 14.4848C43.8593 14.8501 43.8798 15.2253 43.6976 15.6085ZM56.4756 8.93187C57.7002 9.34274 48.0474 21.6732 48.0073 22.1957V29.996C48.0242 30.5471 47.4955 31.075 46.9444 31.058C46.0351 30.9186 43.4832 31.5823 43.5145 29.996C43.6905 29.3511 43.176 20.8551 43.7271 20.496C44.1201 20.287 52.0552 7.61173 52.7117 8.35487C53.453 8.50492 56.1299 7.91452 56.4756 8.93187Z" fill="#1E1E1E"/>
<path d="M16.876 36.0322C17.4244 36.0153 17.9487 36.5476 17.9317 37.0942V57.4304C17.9317 57.7135 17.8263 57.961 17.6146 58.1744C17.21 58.7755 15.1619 58.3861 14.5858 58.4933C14.0374 58.5094 13.5131 57.9779 13.531 57.4304V37.0942C13.531 36.8111 13.6364 36.5637 13.848 36.3502C14.2518 35.7491 16.299 36.1385 16.876 36.0322ZM27.9783 54.1524C29.5298 54.106 28.9296 56.5336 29.0403 57.4304C29.051 57.9931 28.5598 58.5112 27.9783 58.4924C27.504 58.3727 20.2567 58.8113 20.1468 58.1735C19.5913 57.7591 19.9316 55.7869 19.8431 55.2135C19.8333 54.6499 20.3237 54.1327 20.906 54.1515C20.906 54.1524 27.9783 54.1524 27.9783 54.1524Z" fill="#1E1E1E"/>
<path d="M44.4416 36.2752C45.0882 36.6824 44.7095 38.7582 44.8051 39.371C44.9436 40.8054 42.0273 40.4124 40.6473 42.2845C38.1758 44.7015 38.1794 49.9821 40.6473 52.4223C43.6341 55.5707 45.1258 52.3436 44.8051 57.5822C44.413 60.4556 38.4804 56.7247 37.5292 55.4582C33.3356 51.3522 33.3598 43.3635 37.5292 39.22C39.1199 37.6596 42.1255 35.5669 44.4416 36.2752ZM53.9934 39.2191C59.0935 44.3014 57.8046 54.314 51.2548 57.5367C50.1116 58.0154 48.3377 59.0729 47.0819 58.4013C46.4289 58.0208 46.8157 55.9066 46.7165 55.3055C46.7165 54.7392 46.9997 54.3846 47.5669 54.2435C50.794 53.5888 52.7768 50.7359 52.7268 47.3534C52.474 39.797 46.4941 41.3154 46.7165 39.371C46.8201 38.777 46.4289 36.6816 47.081 36.2752C49.3398 35.5436 52.4508 37.6882 53.9934 39.2191Z" fill="#1E1E1E"/>
<path d="M5.08756 71.2042C5.36177 71.3462 5.34569 72.911 5.1483 73.1129C2.89477 73.731 1.60857 75.9238 2.45442 78.2139C3.11806 80.2799 5.08131 79.8744 5.27156 80.7944C5.46895 83.0533 4.58826 82.6299 2.97158 81.9243C1.10481 80.9185 -0.0241922 79.0044 0.00260367 76.7929C-0.0885021 73.9981 2.22308 70.9165 5.08756 71.2042ZM11.4712 76.4731C11.5838 78.0782 11.0202 79.7422 9.8983 80.8712C9.34006 81.5098 6.56937 83.3998 6.21745 81.9555C6.263 81.6831 6.10848 80.6667 6.33982 80.4585C7.5233 79.9843 8.72911 79.4001 9.07389 78.0451C8.81933 77.9871 5.54845 78.1988 5.45466 77.8924C5.22243 77.7334 5.19921 76.2123 5.44126 76.0524C5.36356 75.7318 10.779 75.9533 10.9371 75.8916C11.2461 75.8854 11.498 76.1685 11.4712 76.4731ZM6.64529 73.2969C5.97897 73.2183 6.28087 72.0339 6.21745 71.6168C6.5917 69.4705 12.7896 74.3875 10.4637 74.9922C7.70373 75.236 9.23734 73.9882 6.64529 73.2969Z" fill="white"/>
<path d="M23.1704 82.1699C23.0578 82.3334 22.9105 82.4147 22.7274 82.4147H12.5557C11.507 82.337 12.3717 81.0508 12.5405 80.564C12.427 79.8575 19.8557 80.3827 20.146 80.2308C19.8647 79.5475 17.9711 75.0226 17.6415 74.2339L15.5952 79.1295C15.5541 79.2313 15.4907 79.3108 15.4041 79.3671C15.2218 79.5404 14.0535 79.4144 13.8231 79.4511C13.448 79.4636 13.1612 79.0572 13.3193 78.7008L16.4196 71.4186C16.5554 70.8201 17.98 71.172 18.3748 71.0818C18.6088 71.0818 18.7723 71.1944 18.8634 71.4177L23.2159 81.6662C23.2874 81.8296 23.2722 81.9976 23.1704 82.1699Z" fill="white"/>
<path d="M27.7674 74.7322C27.5941 75.2512 26.2517 74.9448 25.8739 75.0225C25.413 75.2092 23.6927 72.1553 23.4301 71.9374C22.8683 70.7852 24.7484 71.1246 25.3094 71.0817C25.7479 70.9013 27.4852 73.9578 27.738 74.1668C27.8487 74.3508 27.8594 74.5393 27.7674 74.7322ZM34.1975 71.372C34.8138 71.5783 29.9566 77.7834 29.9361 78.046V81.9707C29.9441 82.2476 29.678 82.5137 29.4011 82.5048C28.9438 82.4342 27.6594 82.7692 27.6754 81.9707C27.7496 81.767 27.5254 77.2269 27.7826 77.1903L31.86 71.3104C32.0583 70.8799 33.3749 71.1559 33.7232 71.0808C33.9376 71.0817 34.0948 71.1791 34.1975 71.372Z" fill="white"/>
<path d="M45.5144 82.1699C45.4027 82.3334 45.2545 82.4147 45.0714 82.4147H34.8997C33.8511 82.337 34.7157 81.0508 34.8854 80.564C34.771 79.8575 42.2015 80.3827 42.4909 80.2308C42.2087 79.5475 40.316 75.0235 39.9864 74.2339L37.9401 79.1295C37.899 79.2313 37.8356 79.3108 37.749 79.3671C37.5676 79.5404 36.3984 79.4144 36.1689 79.4511C35.7938 79.4636 35.507 79.0572 35.6651 78.7008L38.7654 71.4186C38.9012 70.8201 40.3258 71.172 40.7206 71.0818C40.9546 71.0818 41.1181 71.1944 41.2092 71.4177L45.5617 81.6662C45.6305 81.8296 45.6153 81.9976 45.5144 82.1699Z" fill="white"/>
<path d="M48.6032 71.0818C48.8792 71.0737 49.1427 71.3408 49.1346 71.6159V81.8483C49.1346 81.9912 49.0819 82.1154 48.9747 82.2226C48.7711 82.5254 47.7403 82.3289 47.4509 82.3833C47.1749 82.3914 46.9115 82.1243 46.9204 81.8483V71.6159C46.9016 70.8343 48.1503 71.1371 48.6032 71.0818ZM54.1892 80.1995C54.4813 80.1897 54.7287 80.4505 54.7233 80.7336C54.6724 81.0266 54.8511 82.01 54.5706 82.2226C54.5313 82.5432 50.854 82.3217 50.6307 82.3833C50.478 82.3833 50.3503 82.3297 50.2484 82.2226C50.0108 82.0627 50.0144 80.5192 50.2484 80.3594C50.2895 80.0396 53.965 80.2611 54.1892 80.1995Z" fill="white"/>
<path d="M60.6192 71.204C60.9452 71.4095 60.7541 72.4536 60.8023 72.7618C60.7594 73.5415 59.1829 73.404 58.7104 74.2275C56.9723 75.9853 57.7306 79.8314 60.3754 80.245C61.0586 80.3343 60.7308 81.4918 60.8032 81.925C60.4647 83.3676 57.7145 81.516 57.142 80.8559C53.9229 77.8914 55.9496 70.8691 60.6192 71.204ZM65.4255 72.6858C67.9916 75.2431 67.3432 80.2816 64.0473 81.9027C63.4453 82.1501 62.6155 82.6709 61.9474 82.3377C61.6187 82.1457 61.8134 81.0828 61.7634 80.78C61.7634 80.495 61.9063 80.3164 62.1912 80.2458C64.836 79.8323 65.5943 75.9862 63.8561 74.2284C63.3774 73.3977 61.817 73.5514 61.7634 72.7627C61.8161 72.4634 61.6187 71.4095 61.9474 71.2049C63.205 70.8771 64.5519 71.8659 65.4255 72.6858Z" fill="white"/>
</svg>
