<svg width="90" height="111" viewBox="0 0 90 111" fill="none" xmlns="http://www.w3.org/2000/svg">
<path d="M79.2065 90H10.7935C4.83283 90 0 85.1672 0 79.2065V10.7935C0 4.83283 4.83283 0 10.7935 0H79.2065C85.1672 0 90 4.83283 90 10.7935V79.2065C90 85.1672 85.1684 90 79.2065 90Z" fill="#1E1E1E"/>
<path d="M26.8383 11.5492C27.7058 12.1336 27.2007 14.9075 27.3279 15.7486C27.3399 16.3833 26.8203 17.0456 26.1797 17.1344C20.411 18.2346 17.8158 25.0579 19.8087 30.2627C21.276 34.1116 23.7056 34.7523 27.0003 36.2557C27.6218 36.8184 27.1935 39.53 27.2871 40.2511C26.7184 44.0928 18.7408 39.0261 17.4894 37.3559C11.8371 31.874 11.8563 21.0097 17.5014 15.5434C19.6431 13.4221 23.7008 10.5978 26.8383 11.5492ZM43.8804 25.6158C44.1804 29.9003 42.6758 34.342 39.6811 37.3571C38.4405 38.9961 30.4174 44.124 29.8547 40.2523C29.9758 39.5252 29.5643 36.8124 30.181 36.2569C30.3982 35.9857 30.6705 35.8226 30.9969 35.7674C34.1428 35.0907 36.5436 32.7942 37.4794 29.8151C36.8016 29.6591 28.067 30.2255 27.8174 29.4072C27.0843 28.8685 27.4982 26.2565 27.3687 25.4934C27.3687 25.1131 27.5066 24.7795 27.7826 24.494C27.575 23.6373 42.0315 24.2288 42.4538 24.0656C43.2781 24.044 43.9512 24.8023 43.8804 25.6158ZM30.9969 17.1356C30.3562 17.0468 29.8427 16.3833 29.8547 15.7498C30.0082 14.49 29.1456 10.827 31.5272 11.2649C36.3552 12.0352 40.4262 15.2087 42.4538 19.6228C43.019 20.4338 42.1443 21.7188 41.1905 21.6612H37.7242C36.498 21.6864 36.2604 20.2802 35.441 19.6228C34.2184 18.3714 32.7366 17.5423 30.9969 17.1356Z" fill="white"/>
<path d="M58.6981 20.9666C58.2374 22.3212 54.6536 21.5533 53.6433 21.7417C52.4123 22.2408 47.8206 14.0881 47.1188 13.505C45.7042 10.3351 50.5682 11.3825 52.134 11.2218C53.3038 10.7406 57.9434 18.8993 58.6165 19.4572C58.9153 19.948 58.9429 20.4519 58.6981 20.9666ZM75.8626 11.998C77.5075 12.5499 64.5412 29.1133 64.4872 29.8152V40.2931C64.51 41.0334 63.7997 41.7425 63.0594 41.7197C61.838 41.5325 58.4102 42.424 58.4521 40.2931C58.6885 39.4268 57.9974 28.0143 58.7377 27.5319C59.2656 27.2512 69.9247 10.2247 70.8066 11.223C71.8024 11.4245 75.3982 10.6314 75.8626 11.998Z" fill="white"/>
<path d="M22.669 48.4014C23.4057 48.3786 24.11 49.0937 24.0872 49.828V77.1452C24.0872 77.5256 23.9456 77.8579 23.6612 78.1447C23.1177 78.9521 20.3666 78.429 19.5927 78.573C18.856 78.5946 18.1517 77.8807 18.1757 77.1452V49.828C18.1757 49.4476 18.3173 49.1153 18.6016 48.8285C19.1439 48.0211 21.8939 48.5442 22.669 48.4014ZM37.5826 72.7419C39.6667 72.6795 38.8604 75.9406 39.0092 77.1452C39.0236 77.9011 38.3637 78.597 37.5826 78.5718C36.9455 78.411 27.2103 79.0001 27.0627 78.1435C26.3164 77.5867 26.7735 74.9376 26.6548 74.1673C26.6416 73.4102 27.3002 72.7155 28.0825 72.7407C28.0825 72.7419 37.5826 72.7419 37.5826 72.7419Z" fill="white"/>
<path d="M59.6975 48.7277C60.5661 49.2748 60.0574 52.0632 60.1858 52.8863C60.3718 54.8131 56.4544 54.2852 54.6007 56.8C51.2808 60.0467 51.2856 67.14 54.6007 70.4178C58.6128 74.6472 60.6165 70.3123 60.1858 77.3491C59.6591 81.2089 51.6899 76.1973 50.4121 74.496C44.779 68.9805 44.8114 58.2494 50.4121 52.6835C52.549 50.5874 56.5864 47.7763 59.6975 48.7277ZM72.5282 52.6823C79.3791 59.5092 77.6478 72.959 68.8496 77.2879C67.3138 77.931 64.931 79.3516 63.2441 78.4494C62.367 77.9382 62.8866 75.0983 62.7534 74.2908C62.7534 73.5301 63.1337 73.0538 63.8956 72.8643C68.2305 71.9848 70.8941 68.1526 70.8269 63.6089C70.4873 53.4586 62.4546 55.4982 62.7534 52.8863C62.8926 52.0884 62.367 49.2736 63.2429 48.7277C66.2772 47.7451 70.4561 50.6258 72.5282 52.6823Z" fill="white"/>
<path d="M6.83403 95.6475C7.20238 95.8383 7.18078 97.9404 6.91562 98.2115C3.88849 99.0418 2.16076 101.987 3.29698 105.064C4.18845 107.839 6.82564 107.294 7.0812 108.53C7.34635 111.564 6.16334 110.996 3.99168 110.048C1.48407 108.697 -0.0324969 106.125 0.00349747 103.155C-0.118883 99.4005 2.98623 95.2612 6.83403 95.6475ZM15.4091 102.725C15.5603 104.881 14.8032 107.117 13.2962 108.633C12.5463 109.491 8.82452 112.03 8.3518 110.09C8.41299 109.724 8.20542 108.358 8.51617 108.079C10.1059 107.442 11.7257 106.657 12.1888 104.837C11.8469 104.759 7.45314 105.043 7.32716 104.632C7.01521 104.418 6.98401 102.375 7.30916 102.16C7.20478 101.729 14.4792 102.027 14.6916 101.944C15.1067 101.936 15.4451 102.316 15.4091 102.725ZM8.92651 98.4587C8.03145 98.3531 8.43699 96.7621 8.3518 96.2018C8.85452 93.3187 17.18 99.9237 14.0557 100.736C10.3483 101.063 12.4084 99.3873 8.92651 98.4587Z" fill="#1E1E1E"/>
<path d="M31.1242 110.378C30.973 110.597 30.7751 110.706 30.5291 110.706H16.8656C15.4571 110.602 16.6185 108.874 16.8452 108.22C16.6929 107.271 26.6717 107.977 27.0617 107.773C26.6837 106.855 24.1401 100.777 23.6974 99.7173L20.9486 106.293C20.8934 106.43 20.8082 106.537 20.6919 106.613C20.4471 106.845 18.8777 106.676 18.5682 106.725C18.0643 106.742 17.6791 106.196 17.8915 105.718L22.056 95.9355C22.2384 95.1316 24.1521 95.6043 24.6824 95.4832C24.9968 95.4832 25.2163 95.6343 25.3387 95.9343L31.1854 109.701C31.2814 109.921 31.261 110.146 31.1242 110.378Z" fill="#1E1E1E"/>
<path d="M37.2997 100.387C37.0669 101.084 35.2636 100.672 34.7561 100.777C34.137 101.027 31.8261 96.9253 31.4734 96.6325C30.7187 95.0848 33.2443 95.5407 33.9978 95.4831C34.5869 95.2408 36.9205 99.3465 37.2601 99.6273C37.4089 99.8744 37.4233 100.128 37.2997 100.387ZM45.9371 95.8731C46.765 96.1502 40.2404 104.485 40.2128 104.838V110.11C40.2236 110.482 39.8661 110.84 39.4941 110.828C38.8798 110.733 37.1545 111.183 37.1761 110.11C37.2757 109.836 36.9745 103.738 37.3201 103.689L42.7972 95.7903C43.0636 95.212 44.8321 95.5827 45.3 95.4819C45.588 95.4831 45.7992 95.6139 45.9371 95.8731Z" fill="#1E1E1E"/>
<path d="M61.1388 110.378C60.9888 110.597 60.7896 110.706 60.5436 110.706H46.8802C45.4716 110.602 46.633 108.874 46.861 108.22C46.7074 107.271 56.6886 107.977 57.0774 107.773C56.6982 106.855 54.1558 100.778 53.7131 99.7173L50.9643 106.293C50.9091 106.43 50.824 106.537 50.7076 106.613C50.464 106.845 48.8935 106.676 48.5851 106.725C48.0812 106.742 47.696 106.196 47.9084 105.718L52.073 95.9355C52.2553 95.1316 54.169 95.6043 54.6994 95.4832C55.0137 95.4832 55.2333 95.6343 55.3557 95.9343L61.2023 109.701C61.2947 109.921 61.2743 110.146 61.1388 110.378Z" fill="#1E1E1E"/>
<path d="M65.2878 95.4831C65.6585 95.4723 66.0125 95.8311 66.0017 96.2006V109.946C66.0017 110.138 65.9309 110.304 65.7869 110.448C65.5133 110.855 64.1288 110.591 63.74 110.664C63.3693 110.675 63.0153 110.316 63.0273 109.946V96.2006C63.0021 95.1508 64.6795 95.5575 65.2878 95.4831ZM72.7914 107.731C73.1838 107.718 73.5161 108.068 73.5089 108.448C73.4405 108.842 73.6805 110.163 73.3037 110.448C73.2509 110.879 68.3113 110.582 68.0114 110.664C67.8062 110.664 67.6346 110.592 67.4978 110.448C67.1787 110.234 67.1835 108.16 67.4978 107.946C67.553 107.516 72.4903 107.814 72.7914 107.731Z" fill="#1E1E1E"/>
<path d="M81.4288 95.6475C81.8668 95.9234 81.61 97.326 81.6748 97.74C81.6172 98.7874 79.4995 98.6026 78.8648 99.7088C76.53 102.07 77.5486 107.236 81.1013 107.792C82.0191 107.912 81.5788 109.467 81.676 110.049C81.2213 111.987 77.527 109.499 76.7579 108.613C72.4338 104.63 75.1562 95.1976 81.4288 95.6475ZM87.885 97.638C91.3321 101.073 90.461 107.841 86.0337 110.019C85.225 110.351 84.1104 111.051 83.2129 110.603C82.7714 110.345 83.033 108.917 82.9658 108.511C82.9658 108.128 83.1578 107.888 83.5405 107.793C87.0931 107.238 88.1118 102.071 85.7769 99.71C85.1338 98.5942 83.0378 98.8006 82.9658 97.7412C83.0366 97.3392 82.7714 95.9234 83.2129 95.6487C84.9023 95.2084 86.7116 96.5365 87.885 97.638Z" fill="#1E1E1E"/>
</svg>
