<svg width="26" height="25" viewBox="0 0 26 25" fill="none" xmlns="http://www.w3.org/2000/svg">
<path d="M19.9235 4.46362C19.1132 4.46362 18.4568 5.12011 18.4568 5.93033C18.4568 6.74056 19.1132 7.39704 19.9235 7.39704C20.7337 7.39704 21.3902 6.74056 21.3902 5.93033C21.3902 5.12011 20.7337 4.46362 19.9235 4.46362Z" fill="white"/>
<path d="M13.4074 6.34265C10.0128 6.34265 7.25018 9.10523 7.25018 12.4999C7.25018 15.8945 10.0128 18.6571 13.4074 18.6571C16.8021 18.6571 19.5647 15.8945 19.5647 12.4999C19.5647 9.10523 16.8021 6.34265 13.4074 6.34265ZM13.4074 16.4436C11.233 16.4436 9.46367 14.6743 9.46367 12.4999C9.46367 10.3255 11.233 8.55614 13.4074 8.55614C15.5819 8.55614 17.3512 10.3255 17.3512 12.4999C17.3512 14.6743 15.5819 16.4436 13.4074 16.4436Z" fill="white"/>
<path d="M18.2956 24.9999H8.31418C4.17275 24.9999 0.804932 21.6321 0.804932 17.4907V7.50925C0.804932 3.36782 4.17275 0 8.31418 0H18.2956C22.437 0 25.8048 3.36782 25.8048 7.50925V17.4907C25.8048 21.6321 22.437 24.9999 18.2956 24.9999ZM8.31418 2.35259C5.47106 2.35259 3.15752 4.66613 3.15752 7.50925V17.4907C3.15752 20.3338 5.47106 22.6473 8.31418 22.6473H18.2956C21.1387 22.6473 23.4523 20.3338 23.4523 17.4907V7.50925C23.4523 4.66613 21.1387 2.35259 18.2956 2.35259H8.31418Z" fill="white"/>
</svg>
