<svg width="66" height="66" viewBox="0 0 66 66" fill="none" xmlns="http://www.w3.org/2000/svg">
<path d="M49.9853 11.6697C47.8669 11.6697 46.1506 13.3861 46.1506 15.5044C46.1506 17.6228 47.8669 19.3391 49.9853 19.3391C52.1036 19.3391 53.82 17.6228 53.82 15.5044C53.82 13.3861 52.1036 11.6697 49.9853 11.6697Z" fill="black"/>
<path d="M32.9493 16.5827C24.074 16.5827 16.8512 23.8054 16.8512 32.6808C16.8512 41.5561 24.074 48.7789 32.9493 48.7789C41.8246 48.7789 49.0474 41.5561 49.0474 32.6808C49.0474 23.8054 41.8246 16.5827 32.9493 16.5827ZM32.9493 42.9917C27.2642 42.9917 22.6383 38.3658 22.6383 32.6808C22.6383 26.9957 27.2642 22.3698 32.9493 22.3698C38.6344 22.3698 43.2603 26.9957 43.2603 32.6808C43.2603 38.3658 38.6344 42.9917 32.9493 42.9917Z" fill="black"/>
<path d="M45.7293 65.3623H19.6329C8.80515 65.3623 0 56.5571 0 45.7293V19.6329C0 8.80516 8.80515 0 19.6329 0H45.7293C56.5571 0 65.3623 8.80516 65.3623 19.6329V45.7293C65.3623 56.5571 56.5571 65.3623 45.7293 65.3623ZM19.6329 6.15085C12.1996 6.15085 6.15084 12.1996 6.15084 19.6329V45.7293C6.15084 53.1627 12.1996 59.2114 19.6329 59.2114H45.7293C53.1627 59.2114 59.2114 53.1627 59.2114 45.7293V19.6329C59.2114 12.1996 53.1627 6.15085 45.7293 6.15085H19.6329Z" fill="black"/>
</svg>
