<svg width="16" height="22" viewBox="0 0 16 22" fill="none" xmlns="http://www.w3.org/2000/svg">
<path d="M7.99999 0C3.58326 0 0 3.80404 0 8.49294C0 12.4936 5.82012 19.7312 7.52982 21.7731C7.77916 22.0756 8.22083 22.0756 8.47017 21.7731C10.187 19.7312 16 12.4936 16 8.49294C16.0071 3.80404 12.4239 0 7.99999 0ZM7.99999 12.2819C5.82012 12.2819 4.0463 10.3988 4.0463 8.08457C4.0463 5.77037 5.82012 3.88721 7.99999 3.88721C10.1799 3.88721 11.9537 5.77037 11.9537 8.08457C11.9608 10.3988 10.187 12.2819 7.99999 12.2819Z" fill="white"/>
</svg>
