<svg width="51" height="51" viewBox="0 0 51 51" fill="none" xmlns="http://www.w3.org/2000/svg">
<path d="M25.5 51L22.8863 48.4256C18.3813 43.9263 14.6625 40.0416 11.73 36.7715C8.7975 33.5014 6.46 30.5791 4.7175 28.0048C2.975 25.4304 1.75312 23.0996 1.05187 21.0123C0.350625 18.925 0 16.8145 0 14.6808C0 10.5061 1.28563 7.01569 3.85687 4.20941C6.42812 1.40314 9.605 0 13.3875 0C15.81 0 18.0519 0.626194 20.1131 1.87858C22.1744 3.13097 23.97 4.93997 25.5 7.30559C27.285 4.80082 29.1763 2.95703 31.1737 1.77421C33.1712 0.591405 35.3175 0 37.6125 0C41.395 0 44.5719 1.40314 47.1431 4.20941C49.7144 7.01569 51 10.5061 51 14.6808C51 16.8145 50.6494 18.925 49.9481 21.0123C49.2469 23.0996 48.025 25.4304 46.2825 28.0048C44.54 30.5791 42.2025 33.5014 39.27 36.7715C36.3375 40.0416 32.6187 43.9263 28.1137 48.4256L25.5 51ZM25.5 45.5034C29.7925 41.1896 33.3306 37.4904 36.1144 34.4059C38.8981 31.3213 41.1081 28.6194 42.7444 26.3001C44.3806 23.9809 45.5281 21.9168 46.1869 20.1078C46.8456 18.2988 47.175 16.4898 47.175 14.6808C47.175 11.6194 46.2825 9.103 44.4975 7.13165C42.7125 5.1603 40.4175 4.17462 37.6125 4.17462C35.445 4.17462 33.4263 4.90518 31.5562 6.3663C29.6862 7.82742 28.1775 9.87995 27.03 12.5239H23.9062C22.8013 9.92633 21.3137 7.8854 19.4438 6.40109C17.5737 4.91678 15.555 4.17462 13.3875 4.17462C10.5825 4.17462 8.2875 5.1603 6.5025 7.13165C4.7175 9.103 3.825 11.6194 3.825 14.6808C3.825 16.4898 4.15438 18.3104 4.81313 20.1426C5.47188 21.9748 6.61938 24.0621 8.25563 26.4045C9.89188 28.7469 12.1125 31.4488 14.9175 34.5102C17.7225 37.5716 21.25 41.236 25.5 45.5034Z" fill="#1E1E1E"/>
</svg>
