<svg width="66" height="66" viewBox="0 0 66 66" fill="none" xmlns="http://www.w3.org/2000/svg">
<path d="M33 66L29.6175 62.6685C23.7875 56.8458 18.975 51.8186 15.18 47.5866C11.385 43.3547 8.36 39.573 6.105 36.2415C3.85 32.91 2.26875 29.8936 1.36125 27.1924C0.45375 24.4911 0 21.7599 0 18.9986C0 13.5962 1.66375 9.07913 4.99125 5.44747C8.31875 1.81582 12.43 0 17.325 0C20.46 0 23.3612 0.810368 26.0287 2.4311C28.6962 4.05184 31.02 6.39291 33 9.4543C35.31 6.21282 37.7575 3.82674 40.3425 2.29604C42.9275 0.765347 45.705 0 48.675 0C53.57 0 57.6812 1.81582 61.0087 5.44747C64.3363 9.07913 66 13.5962 66 18.9986C66 21.7599 65.5462 24.4911 64.6387 27.1924C63.7312 29.8936 62.15 32.91 59.895 36.2415C57.64 39.573 54.615 43.3547 50.82 47.5866C47.025 51.8186 42.2125 56.8458 36.3825 62.6685L33 66ZM33 58.8868C38.555 53.3042 43.1338 48.517 46.7363 44.5252C50.3387 40.5334 53.1988 37.0368 55.3162 34.0355C57.4338 31.0341 58.9187 28.3629 59.7712 26.0218C60.6237 23.6808 61.05 21.3397 61.05 18.9986C61.05 15.0368 59.895 11.7804 57.585 9.22919C55.275 6.67804 52.305 5.40246 48.675 5.40246C45.87 5.40246 43.2575 6.34788 40.8375 8.23874C38.4175 10.1296 36.465 12.7858 34.98 16.2074H30.9375C29.5075 12.8458 27.5825 10.2046 25.1625 8.28376C22.7425 6.36289 20.13 5.40246 17.325 5.40246C13.695 5.40246 10.725 6.67804 8.415 9.22919C6.105 11.7804 4.95 15.0368 4.95 18.9986C4.95 21.3397 5.37625 23.6958 6.22875 26.0668C7.08125 28.4379 8.56625 31.1391 10.6838 34.1705C12.8013 37.2019 15.675 40.6985 19.305 44.6603C22.935 48.6221 27.5 53.3643 33 58.8868Z" fill="#1E1E1E"/>
</svg>
