<svg width="39" height="28" viewBox="0 0 39 28" fill="none" xmlns="http://www.w3.org/2000/svg">
<path d="M26.7126 11.789C26.707 11.7191 26.6958 11.6492 26.6958 11.5793C26.6944 10.064 26.6972 8.5472 26.6916 7.03184C26.6916 6.85151 26.7531 6.76344 26.9223 6.69494C27.9931 6.26018 29.1072 6.09802 30.2577 6.10082C32.8299 6.10781 35.4035 6.10361 37.9757 6.09802C38.1407 6.09802 38.1882 6.15394 38.1798 6.31051C38.1323 7.22895 37.8177 8.04394 37.2292 8.7485C37.0698 8.93862 36.8979 9.12175 36.7148 9.2895C36.5917 9.40273 36.5778 9.4922 36.6756 9.63059C37.2096 10.3869 37.6136 11.2103 37.8653 12.1035C38.2623 13.514 38.2986 14.9371 37.9561 16.363C37.5479 18.0657 36.6672 19.486 35.3742 20.6617C34.3355 21.6053 33.1263 22.219 31.7661 22.5167C30.0564 22.89 28.3817 22.7572 26.7643 22.0568C26.5364 21.9575 26.31 21.8513 26.0877 21.7395C25.878 21.6346 25.8445 21.6486 25.8431 21.8793C25.8417 22.4091 25.8333 22.9389 25.8445 23.4687C25.857 24.0978 25.7788 24.7101 25.5453 25.2944C25.3286 25.8368 25.0043 26.3177 24.5905 26.7273C23.8524 27.4584 22.9619 27.8568 21.9219 27.9183C21.7443 27.9295 21.7052 27.8596 21.7066 27.6988C21.7108 26.4016 21.7108 25.1057 21.7066 23.8084C21.7066 23.6462 21.7611 23.5833 21.9261 23.5735C23.563 23.4813 24.8659 22.7572 25.7969 21.4165C26.3924 20.5596 26.6888 19.5839 26.693 18.5298C26.6944 18.0979 26.693 17.6659 26.6944 17.2325C26.6944 17.164 26.7084 17.0955 26.7224 16.9683C27.8365 18.2223 29.1701 18.7828 30.7833 18.4529C31.8304 18.239 32.6943 17.6701 33.3094 16.781C34.3229 15.316 34.4333 13.1953 32.918 11.5723C32.0848 10.679 31.0168 10.2275 29.7768 10.2876C28.5537 10.3463 27.5541 10.8803 26.7643 11.8239C26.7475 11.8128 26.7307 11.8016 26.7126 11.789Z" fill="white"/>
<path d="M4.55818 6.11616C5.93234 6.11616 7.30651 6.11337 8.68068 6.11896C8.88058 6.12036 9.07909 6.1609 9.27899 6.17068C9.43976 6.17907 9.50127 6.25176 9.50266 6.41113C9.50826 6.96331 9.60611 7.49872 9.80182 8.01735C10.4812 9.82208 12.1378 10.9782 13.9033 11.0467C14.4555 11.0676 15.0105 11.0564 15.5627 11.062C15.7808 11.0634 15.8031 11.1054 15.6927 11.2969C14.2934 13.7559 12.894 16.2148 11.4947 18.6738C10.772 19.9431 10.0479 21.211 9.32792 22.4817C9.25663 22.6089 9.16716 22.6607 9.02597 22.6732C6.80466 22.8718 4.81959 22.2637 3.09175 20.8699C1.66726 19.7222 0.712476 18.246 0.266537 16.4608C-0.306615 14.164 0.0512555 12.007 1.27584 9.98843C1.35413 9.85842 1.4408 9.73261 1.53586 9.61379C1.63651 9.48657 1.62253 9.39151 1.49951 9.28807C1.11368 8.96235 0.815924 8.56394 0.564296 8.12918C0.245568 7.577 0.0736231 6.97869 0.0358789 6.34263C0.0232976 6.12315 0.0414712 6.10498 0.267936 6.10498C1.69662 6.10498 3.1267 6.10498 4.55539 6.10498C4.55818 6.10917 4.55818 6.11337 4.55818 6.11616ZM4.15139 14.4129C4.15977 16.6971 5.99385 18.5326 8.24592 18.548C10.5022 18.5647 12.381 16.6705 12.3684 14.4017C12.3558 12.0881 10.5008 10.2736 8.24452 10.2806C5.9673 10.289 4.15977 12.1454 4.15139 14.4129Z" fill="white"/>
<path d="M10.1793 22.6928C10.4099 22.2818 10.6168 21.9099 10.8265 21.5409C12.0846 19.3308 13.3442 17.1206 14.6023 14.9105C15.4369 13.4455 16.27 11.9818 17.1032 10.5168C17.127 10.4749 17.1535 10.4329 17.1731 10.3882C17.2206 10.2834 17.1871 10.2232 17.0697 10.2177C17.0151 10.2149 16.9606 10.2163 16.9061 10.2163C16.0422 10.2163 15.1797 10.2177 14.3157 10.2149C13.5734 10.2121 12.8647 10.0667 12.2216 9.67666C11.4094 9.18458 10.8461 8.48702 10.5637 7.57976C10.4644 7.25824 10.4295 6.91574 10.3652 6.58304C10.333 6.42088 10.4057 6.35517 10.5637 6.36496C10.6 6.36636 10.6364 6.36496 10.6727 6.36496C14.9658 6.36496 19.2602 6.36496 23.5533 6.36636C23.6525 6.36636 23.7518 6.39432 23.851 6.40829C23.8147 6.50615 23.7923 6.61239 23.742 6.70186C22.797 8.36959 21.8492 10.0345 20.8986 11.6995C20.3883 12.5927 19.8683 13.479 19.3609 14.3723C18.6214 15.6738 17.8902 16.9794 17.1563 18.2837C17.0277 18.5116 17.0515 18.5507 17.3171 18.5507C18.4061 18.5507 19.4937 18.5507 20.5827 18.5507C20.8413 18.5507 20.8511 18.5619 20.8511 18.8163C20.8511 20.0339 20.8511 21.2515 20.8511 22.4677C20.8511 22.711 20.8497 22.7124 20.6078 22.7124C17.2206 22.7124 13.8335 22.7124 10.4463 22.711C10.3708 22.7152 10.2953 22.7026 10.1793 22.6928Z" fill="white"/>
<path d="M25.8263 13.212C25.8263 15.0684 25.8319 16.9249 25.8235 18.7813C25.8207 19.3629 25.632 19.9011 25.379 20.4225C24.947 21.3088 24.2676 21.9379 23.3869 22.3475C22.9172 22.5655 22.4153 22.697 21.8897 22.7109C21.7555 22.7151 21.7094 22.6676 21.7094 22.532C21.7122 19.8298 21.7038 17.1262 21.7164 14.424C21.722 13.3392 21.9093 12.2782 22.3315 11.2717C22.653 10.5056 23.0724 9.79545 23.5966 9.14681C24.1572 8.45344 24.8058 7.86631 25.5607 7.39381C25.6292 7.35047 25.7103 7.32671 25.7858 7.29456C25.8025 7.37424 25.8333 7.45252 25.8347 7.5322C25.8375 9.425 25.8375 11.3192 25.8375 13.212C25.8333 13.212 25.8291 13.212 25.8263 13.212Z" fill="white"/>
<path d="M23.9237 5.10545C22.5356 5.10406 21.42 3.96334 21.4214 2.54724C21.4228 1.13393 22.5481 -0.017961 23.9307 0.000212121C25.3566 0.0183852 26.4498 1.10318 26.4581 2.55423C26.4665 3.97593 25.3216 5.10825 23.9237 5.10545Z" fill="white"/>
</svg>
