<svg width="20" height="29" viewBox="0 0 20 29" fill="none" xmlns="http://www.w3.org/2000/svg">
<path d="M19.655 21.0983V3.54459C19.655 1.58693 18.068 0 16.1104 0H3.54386C1.5862 0 0 1.58693 0 3.54459V21.0983H19.655ZM9.82712 2.20896C10.414 2.20896 10.8902 2.68445 10.8902 3.27204C10.8902 3.8589 10.414 4.33513 9.82712 4.33513C9.24026 4.33513 8.76403 3.85963 8.76403 3.27204C8.76477 2.68445 9.24026 2.20896 9.82712 2.20896Z" fill="white"/>
<path d="M0 23.2244V25.4553C0 27.413 1.58693 28.9999 3.54386 28.9999H16.1104C18.068 28.9999 19.655 27.413 19.655 25.4553V23.2244H0ZM9.82712 27.0283C9.24026 27.0283 8.76403 26.5521 8.76403 25.9652C8.76403 25.3784 9.23953 24.9021 9.82712 24.9021C10.414 24.9021 10.8902 25.3776 10.8902 25.9652C10.8902 26.5521 10.414 27.0283 9.82712 27.0283Z" fill="white"/>
</svg>
