<svg width="56" height="56" viewBox="0 0 56 56" fill="none" xmlns="http://www.w3.org/2000/svg">
<path d="M35.0408 15.4328L35.0408 15.4328C30.3796 11.587 23.5647 12.192 19.616 16.7338C15.725 21.209 15.917 28.7431 21.4847 32.9308C16.09 35.0088 12.3202 38.7077 10.1249 44.0163C2.6979 36.1882 1.05042 21.8941 10.227 11.7926C19.6046 1.46973 35.7355 1.27981 45.3755 11.3739C54.813 21.2562 53.5877 35.8011 45.8715 44.0319C44.844 41.4584 43.3674 39.1927 41.3866 37.2601L41.212 37.4391L41.3866 37.2601C39.4126 35.3346 37.1328 33.9009 34.4808 32.9284C37.7922 30.3368 39.3888 26.9447 38.9743 22.7066L38.7255 22.7309L38.9743 22.7066C38.6861 19.7623 37.3199 17.3136 35.0408 15.4328ZM26.7326 35.0644L26.7327 35.0644C27.078 35.04 27.4229 35.0183 27.6643 35.0031C27.7272 34.9991 27.7831 34.9956 27.8302 34.9926C34.9187 35.0309 40.9621 39.4195 43.1623 45.9373L43.3991 45.8573L43.1623 45.9373C43.2513 46.2009 43.2649 46.3627 43.2313 46.4885C43.1987 46.6111 43.109 46.7448 42.8845 46.9219L42.8844 46.9219C34.1535 53.8128 21.5818 53.7589 12.9593 46.7862C12.8069 46.6627 12.7534 46.579 12.7335 46.51C12.7131 46.4394 12.7146 46.3393 12.7716 46.1534C14.6489 40.0407 20.3397 35.5116 26.7326 35.0644ZM0.750052 28.0215C0.779055 43.1063 12.9419 55.2494 28.0227 55.25C43.0254 55.2506 55.2264 43.0863 55.25 28.104C55.2741 12.9517 43.0774 0.717435 27.9773 0.750065C12.8904 0.782692 0.721046 12.9705 0.750052 28.0215ZM27.9508 31.8014C23.6387 31.7828 20.1359 28.2444 20.1469 23.9134C20.1579 19.5953 23.6867 16.0889 28.0176 16.0953C32.3617 16.1017 35.8787 19.6535 35.8537 24.0119C35.8288 28.3207 32.2809 31.82 27.9508 31.8014Z" fill="#1E1E1E" stroke="#1E1E1E" stroke-width="0.5"/>
</svg>
