<svg width="54" height="54" viewBox="0 0 54 54" fill="none" xmlns="http://www.w3.org/2000/svg">
<path d="M42.4851 35.8135C45.725 39.0237 48.9177 42.1608 52.0811 45.3272C54.4276 47.6767 54.6333 50.6228 52.6363 52.6015C50.5944 54.624 47.7287 54.4521 45.362 52.0903C42.1918 48.9273 39.0643 45.7216 35.8345 42.4485C29.4334 46.2665 22.7592 47.2711 15.7602 44.971C10.4862 43.2373 6.37204 39.9349 3.44007 35.2101C-2.42051 25.7616 -0.640425 13.3557 7.6172 5.93871C15.9198 -1.51876 28.386 -1.99405 37.1662 4.74654C45.5058 11.1501 49.5942 23.6773 42.4851 35.8135ZM23.0266 5.30611C13.2496 5.3342 5.29994 13.3613 5.31905 23.1863C5.33815 32.9359 13.4025 40.8799 23.2491 40.8496C32.8171 40.8204 40.9039 32.655 40.8679 23.0604C40.8309 13.258 32.8126 5.27802 23.0266 5.30611Z" fill="#1E1E1E"/>
</svg>
