<svg width="21" height="24" viewBox="0 0 21 24" fill="none" xmlns="http://www.w3.org/2000/svg">
<path d="M20.6804 9.6114C20.4871 9.63096 20.2915 9.63965 20.096 9.64182C17.956 9.64182 15.9616 8.56423 14.7884 6.77404V16.5419C14.7884 20.5285 11.5557 23.7613 7.56903 23.7613C3.58238 23.7613 0.349609 20.5285 0.349609 16.5419C0.349609 12.5552 3.58238 9.32246 7.56903 9.32246C7.71893 9.32246 7.86667 9.3355 8.0144 9.34636V12.9028C7.86667 12.8855 7.72111 12.8572 7.56903 12.8572C5.53334 12.8572 3.88437 14.5062 3.88437 16.5419C3.88437 18.5776 5.53334 20.2265 7.56903 20.2265C9.60472 20.2265 11.4014 18.6232 11.4014 16.5875L11.4362 0H14.8406C15.1621 3.05245 17.6215 5.43574 20.6826 5.65952V9.61358" fill="white"/>
</svg>
