<svg width="68" height="56" viewBox="0 0 68 56" fill="none" xmlns="http://www.w3.org/2000/svg">
<path d="M67.7188 6.71119C65.5594 7.68873 63.171 8.28031 60.8421 8.6735C61.9471 8.48773 63.5712 6.48393 64.2237 5.67412C65.2169 4.43865 66.0406 3.03005 66.5057 1.50962C66.567 1.39058 66.6102 1.24268 66.4913 1.1525C66.3417 1.09298 66.2461 1.12365 66.1272 1.18317C63.5261 2.57735 60.8367 3.58736 57.9725 4.30519C57.7363 4.36471 57.5597 4.30519 57.4101 4.15549C57.1721 3.88856 56.9504 3.63425 56.6981 3.42684C55.494 2.4024 54.2034 1.59799 52.7487 1.00461C50.838 0.225458 48.7489 -0.1046 46.6904 0.0288656C44.6877 0.158725 42.7212 0.72325 40.9439 1.6521C39.1629 2.58276 37.5731 3.87954 36.3077 5.44145C34.9991 7.05747 34.0347 8.96568 33.539 10.9893C33.0631 12.9408 33.101 14.8743 33.393 16.8456C33.4363 17.1738 33.4074 17.2171 33.1118 17.1738C21.9144 15.5055 12.6313 11.4979 5.0967 2.9056C4.77044 2.53225 4.59199 2.53225 4.32341 2.93446C1.02476 7.87992 2.62541 15.8248 6.74422 19.7295C7.294 20.2508 7.85819 20.7702 8.46565 21.2446C8.24394 21.2896 5.50227 20.9939 3.05983 19.7295C2.73357 19.5221 2.56773 19.6412 2.53889 20.0127C2.50825 20.5466 2.55511 21.0389 2.62902 21.6179C3.26171 26.6319 6.7298 31.2671 11.4831 33.0761C12.0473 33.3142 12.671 33.5216 13.2784 33.6262C12.1951 33.8643 11.0811 34.0339 7.97716 33.7904C7.59142 33.7164 7.44361 33.9094 7.59142 34.281C9.92391 40.6422 14.9602 42.536 18.7311 43.6146C19.2358 43.7029 19.7405 43.7029 20.2471 43.822C20.2164 43.8671 20.1858 43.8671 20.1569 43.9121C18.906 45.8204 14.5691 47.2398 12.5502 47.9468C8.87843 49.2327 4.87859 49.8099 0.995916 49.4275C0.374039 49.3356 0.244256 49.3428 0.074817 49.4275C-0.0964245 49.5322 0.0531861 49.6819 0.253268 49.8424C1.04098 50.3636 1.84311 50.8253 2.65966 51.2708C5.12554 52.5784 7.69596 53.6191 10.3836 54.3622C24.2649 58.1984 39.8984 55.3794 50.3225 45.0178C58.506 36.8817 61.3757 25.6598 61.3757 14.4252C61.3757 13.9851 61.8948 13.7434 62.203 13.5107C64.3336 11.9092 66.0497 9.99373 67.6395 7.85466C67.9964 7.37491 68 6.94745 68 6.7707C68 6.74004 68 6.71299 68 6.71299C67.9982 6.53083 67.9928 6.58493 67.7188 6.71119Z" fill="black"/>
</svg>
